<mxfile host="Electron" agent="Mozilla/5.0 (Windows NT 10.0; Win64; x64) AppleWebKit/537.36 (KHTML, like Gecko) draw.io/25.0.2 Chrome/128.0.6613.186 Electron/32.2.5 Safari/537.36" version="25.0.2">
  <diagram name="Page-1" id="5f0bae14-7c28-e335-631c-24af17079c00">
    <mxGraphModel dx="1084" dy="760" grid="1" gridSize="10" guides="1" tooltips="1" connect="1" arrows="1" fold="1" page="1" pageScale="1" pageWidth="1100" pageHeight="850" background="none" math="0" shadow="0">
      <root>
        <mxCell id="0" />
        <mxCell id="1" parent="0" />
        <mxCell id="wERA_-9tcClfYGp_6WcB-19" value="" style="shape=cube;whiteSpace=wrap;html=1;boundedLbl=1;backgroundOutline=1;darkOpacity=0.05;darkOpacity2=0.1;fillColor=none;strokeColor=#000000;" parent="1" vertex="1">
          <mxGeometry x="90" y="140" width="280" height="155" as="geometry" />
        </mxCell>
        <mxCell id="wERA_-9tcClfYGp_6WcB-20" value="" style="shape=cube;whiteSpace=wrap;html=1;boundedLbl=1;backgroundOutline=1;darkOpacity=0.05;darkOpacity2=0.1;fillColor=none;strokeColor=#000000;" parent="1" vertex="1">
          <mxGeometry x="520" y="310" width="280" height="160" as="geometry" />
        </mxCell>
        <mxCell id="wERA_-9tcClfYGp_6WcB-26" value="&lt;font color=&quot;#000000&quot; style=&quot;font-size: 20px;&quot;&gt;Client A&lt;/font&gt;" style="text;html=1;align=center;verticalAlign=middle;whiteSpace=wrap;rounded=0;strokeColor=none;" parent="1" vertex="1">
          <mxGeometry x="200" y="170" width="80" height="30" as="geometry" />
        </mxCell>
        <mxCell id="wERA_-9tcClfYGp_6WcB-27" value="&lt;font color=&quot;#000000&quot; style=&quot;font-size: 15px;&quot;&gt;Browser:&lt;/font&gt;&lt;div&gt;&lt;font color=&quot;#000000&quot; style=&quot;font-size: 15px;&quot;&gt;&amp;nbsp;Chirp!&amp;nbsp;&lt;/font&gt;&lt;span style=&quot;font-size: 15px; color: rgb(0, 0, 0); background-color: initial;&quot;&gt;Webpage&lt;/span&gt;&lt;/div&gt;" style="rounded=0;whiteSpace=wrap;html=1;fillColor=#E6E6E6;strokeColor=#000000;" parent="1" vertex="1">
          <mxGeometry x="167.5" y="210" width="145" height="60" as="geometry" />
        </mxCell>
        <mxCell id="wERA_-9tcClfYGp_6WcB-28" value="" style="shape=cube;whiteSpace=wrap;html=1;boundedLbl=1;backgroundOutline=1;darkOpacity=0.05;darkOpacity2=0.1;fillColor=none;strokeColor=#000000;" parent="1" vertex="1">
          <mxGeometry x="90" y="460" width="280" height="155" as="geometry" />
        </mxCell>
        <mxCell id="wERA_-9tcClfYGp_6WcB-29" value="&lt;font color=&quot;#000000&quot; style=&quot;font-size: 20px;&quot;&gt;Client B&lt;/font&gt;" style="text;html=1;align=center;verticalAlign=middle;whiteSpace=wrap;rounded=0;strokeColor=none;" parent="1" vertex="1">
          <mxGeometry x="200" y="490" width="80" height="30" as="geometry" />
        </mxCell>
        <mxCell id="wERA_-9tcClfYGp_6WcB-30" value="&lt;font color=&quot;#000000&quot; style=&quot;font-size: 15px;&quot;&gt;Browser:&lt;/font&gt;&lt;div&gt;&lt;font color=&quot;#000000&quot; style=&quot;font-size: 15px;&quot;&gt;Chirp! Webpage&lt;/font&gt;&lt;/div&gt;" style="rounded=0;whiteSpace=wrap;html=1;fillColor=#E6E6E6;strokeColor=#000000;" parent="1" vertex="1">
          <mxGeometry x="167.5" y="530" width="145" height="60" as="geometry" />
        </mxCell>
        <mxCell id="wERA_-9tcClfYGp_6WcB-31" value="&lt;font color=&quot;#000000&quot;&gt;&lt;span style=&quot;font-size: 15px;&quot;&gt;Authentication&amp;nbsp;&lt;/span&gt;&lt;/font&gt;" style="shape=cube;whiteSpace=wrap;html=1;boundedLbl=1;backgroundOutline=1;darkOpacity=0.05;darkOpacity2=0.1;fillColor=none;strokeColor=#000000;" parent="1" vertex="1">
          <mxGeometry x="520" y="140" width="280" height="120" as="geometry" />
        </mxCell>
        <mxCell id="wERA_-9tcClfYGp_6WcB-34" value="&lt;font color=&quot;#000000&quot; style=&quot;font-size: 20px;&quot;&gt;Azure App Service&lt;/font&gt;" style="text;html=1;align=center;verticalAlign=middle;whiteSpace=wrap;rounded=0;strokeColor=none;" parent="1" vertex="1">
          <mxGeometry x="577.5" y="340" width="180" height="30" as="geometry" />
        </mxCell>
        <mxCell id="wERA_-9tcClfYGp_6WcB-36" style="rounded=0;orthogonalLoop=1;jettySize=auto;html=1;exitX=0;exitY=0;exitDx=280;exitDy=87.5;exitPerimeter=0;strokeWidth=2;strokeColor=#000000;edgeStyle=orthogonalEdgeStyle;entryX=0;entryY=0.38;entryDx=0;entryDy=0;entryPerimeter=0;curved=1;" parent="1" source="wERA_-9tcClfYGp_6WcB-19" target="wERA_-9tcClfYGp_6WcB-20" edge="1">
          <mxGeometry relative="1" as="geometry">
            <mxPoint x="519" y="300" as="targetPoint" />
          </mxGeometry>
        </mxCell>
        <mxCell id="wERA_-9tcClfYGp_6WcB-37" style="edgeStyle=orthogonalEdgeStyle;rounded=0;orthogonalLoop=1;jettySize=auto;html=1;exitX=0;exitY=0;exitDx=280;exitDy=87.5;exitPerimeter=0;entryX=-0.004;entryY=0.684;entryDx=0;entryDy=0;entryPerimeter=0;curved=1;strokeWidth=2;strokeColor=#000000;" parent="1" source="wERA_-9tcClfYGp_6WcB-28" target="wERA_-9tcClfYGp_6WcB-20" edge="1">
          <mxGeometry relative="1" as="geometry" />
        </mxCell>
        <mxCell id="wERA_-9tcClfYGp_6WcB-38" value="&lt;font color=&quot;#000000&quot; style=&quot;font-size: 20px;&quot;&gt;GitHub&lt;/font&gt;" style="text;html=1;align=center;verticalAlign=middle;whiteSpace=wrap;rounded=0;strokeColor=none;" parent="1" vertex="1">
          <mxGeometry x="597.5" y="170" width="140" height="40" as="geometry" />
        </mxCell>
        <mxCell id="wERA_-9tcClfYGp_6WcB-40" value="" style="shape=cylinder3;whiteSpace=wrap;html=1;boundedLbl=1;backgroundOutline=1;size=15;fillColor=none;strokeColor=#000000;" parent="1" vertex="1">
          <mxGeometry x="520" y="510" width="280" height="100" as="geometry" />
        </mxCell>
        <mxCell id="wERA_-9tcClfYGp_6WcB-43" value="&lt;span style=&quot;font-size: 20px;&quot;&gt;SQLite Database&lt;/span&gt;" style="text;html=1;align=center;verticalAlign=middle;whiteSpace=wrap;rounded=0;strokeColor=none;" parent="1" vertex="1">
          <mxGeometry x="577.5" y="545" width="180" height="30" as="geometry" />
        </mxCell>
        <mxCell id="wERA_-9tcClfYGp_6WcB-44" value="&lt;div&gt;&lt;span style=&quot;font-size: 15px;&quot;&gt;Chirp.Web&lt;/span&gt;&lt;/div&gt;" style="rounded=0;whiteSpace=wrap;html=1;fillColor=#E6E6E6;strokeColor=#000000;" parent="1" vertex="1">
          <mxGeometry x="595" y="390" width="145" height="60" as="geometry" />
        </mxCell>
        <mxCell id="wERA_-9tcClfYGp_6WcB-45" style="edgeStyle=orthogonalEdgeStyle;rounded=0;orthogonalLoop=1;jettySize=auto;html=1;exitX=0.5;exitY=1;exitDx=0;exitDy=0;exitPerimeter=0;" parent="1" source="wERA_-9tcClfYGp_6WcB-40" target="wERA_-9tcClfYGp_6WcB-40" edge="1">
          <mxGeometry relative="1" as="geometry" />
        </mxCell>
        <mxCell id="wERA_-9tcClfYGp_6WcB-49" style="edgeStyle=orthogonalEdgeStyle;rounded=0;orthogonalLoop=1;jettySize=auto;html=1;exitX=0;exitY=0;exitDx=130;exitDy=0;exitPerimeter=0;entryX=0.461;entryY=1.006;entryDx=0;entryDy=0;entryPerimeter=0;strokeWidth=2;" parent="1" source="wERA_-9tcClfYGp_6WcB-20" target="wERA_-9tcClfYGp_6WcB-31" edge="1">
          <mxGeometry relative="1" as="geometry" />
        </mxCell>
        <mxCell id="wERA_-9tcClfYGp_6WcB-50" style="edgeStyle=orthogonalEdgeStyle;rounded=0;orthogonalLoop=1;jettySize=auto;html=1;exitX=0;exitY=0;exitDx=150;exitDy=160;exitPerimeter=0;entryX=0.533;entryY=-0.008;entryDx=0;entryDy=0;entryPerimeter=0;strokeWidth=2;" parent="1" source="wERA_-9tcClfYGp_6WcB-20" target="wERA_-9tcClfYGp_6WcB-40" edge="1">
          <mxGeometry relative="1" as="geometry" />
        </mxCell>
        <mxCell id="wERA_-9tcClfYGp_6WcB-51" value="&lt;font style=&quot;font-size: 15px;&quot;&gt;Chat.db&lt;/font&gt;" style="text;html=1;align=center;verticalAlign=middle;whiteSpace=wrap;rounded=0;" parent="1" vertex="1">
          <mxGeometry x="637.5" y="570" width="60" height="30" as="geometry" />
        </mxCell>
        <mxCell id="wERA_-9tcClfYGp_6WcB-52" value="Log-in" style="text;html=1;align=center;verticalAlign=middle;whiteSpace=wrap;rounded=0;" parent="1" vertex="1">
          <mxGeometry x="650" y="270" width="60" height="30" as="geometry" />
        </mxCell>
        <mxCell id="wERA_-9tcClfYGp_6WcB-53" value="Uses HTTPS" style="text;html=1;align=center;verticalAlign=middle;whiteSpace=wrap;rounded=0;" parent="1" vertex="1">
          <mxGeometry x="440" y="380" width="60" height="30" as="geometry" />
        </mxCell>
      </root>
    </mxGraphModel>
  </diagram>
</mxfile>
